<?xml version="1.0" standalone="no"?>
<!DOCTYPE svg PUBLIC "-//W3C//DTD SVG 20010904//EN"
 "http://www.w3.org/TR/2001/REC-SVG-20010904/DTD/svg10.dtd">
<svg version="1.0" xmlns="http://www.w3.org/2000/svg"
 width="264.000000pt" height="265.000000pt" viewBox="0 0 264.000000 265.000000"
 preserveAspectRatio="xMidYMid meet">

<g transform="translate(0.000000,265.000000) scale(0.100000,-0.100000)"
fill="#000000" stroke="none">
<path d="M709 2320 c-58 -60 -58 -82 -6 -293 44 -183 76 -259 115 -275 28 -11
27 -35 -1 -28 -18 4 -30 -1 -48 -22 l-24 -27 26 23 c39 34 41 27 5 -26 -21
-32 -45 -93 -70 -180 l-37 -132 20 -45 c11 -25 25 -45 32 -45 7 0 9 -3 6 -6
-9 -9 -36 15 -59 51 l-19 30 5 -30 c3 -16 11 -67 17 -113 6 -46 17 -88 23 -95
6 -7 16 -25 21 -42 6 -17 19 -31 30 -33 11 -2 24 -7 28 -12 5 -4 22 -97 38
-206 16 -110 42 -287 58 -394 16 -107 27 -198 25 -202 -3 -5 177 -8 400 -8
243 0 406 4 406 9 0 9 81 563 105 714 12 78 23 97 58 97 11 0 17 8 17 22 0 12
7 29 15 38 14 16 22 53 39 180 5 37 4 42 -7 30 -6 -8 -20 -22 -31 -30 -13 -10
-11 -3 8 24 14 21 26 51 26 65 0 43 -79 291 -101 317 -6 7 -8 18 -5 23 4 5 1
13 -5 17 -8 5 -9 3 -4 -6 5 -8 3 -11 -6 -8 -8 3 -13 11 -11 18 2 7 -5 9 -19 5
-15 -5 -20 -3 -17 6 3 8 14 15 26 17 34 5 79 69 96 136 38 149 76 315 76 333
0 35 -28 90 -60 117 l-32 26 -560 0 -561 0 -38 -40z m715 -591 c22 -18 26 -28
26 -75 0 -53 0 -54 -30 -54 -23 0 -30 5 -30 19 0 26 -35 68 -64 75 -49 12
-105 -26 -106 -71 0 -19 -5 -23 -35 -23 -34 0 -35 1 -35 40 0 49 16 85 44 98
11 6 62 11 112 11 78 1 95 -2 118 -20z m-76 -65 c32 -22 31 -86 -3 -108 -13
-9 -34 -16 -45 -16 -27 0 -70 43 -70 70 0 28 43 70 72 70 13 0 34 -7 46 -16z
m-82 -159 c16 -8 34 -15 39 -15 6 0 23 7 39 15 36 19 46 19 46 0 0 -21 -44
-47 -84 -48 -44 -1 -86 21 -86 45 0 22 9 23 46 3z m-49 -61 c33 -22 46 -25 95
-22 43 3 64 10 82 27 24 23 56 23 56 1 0 -19 -76 -60 -123 -66 -73 -10 -183
41 -162 75 8 15 9 15 52 -15z m-44 -58 c72 -55 170 -57 251 -6 75 48 104 36
43 -17 -83 -73 -261 -69 -338 8 -42 42 -8 54 44 15z m-60 -50 c57 -44 118 -66
182 -66 79 0 123 13 184 55 55 38 71 43 71 21 0 -16 -78 -75 -125 -95 -16 -7
-61 -15 -100 -18 -83 -6 -162 17 -225 67 -63 50 -50 84 13 36z"/>
</g>
</svg>
